<?xml version="1.0" encoding="UTF-8"?>
<svg version="1.1" xmlns="http://www.w3.org/2000/svg" width="198" height="198">
<path d="M0 0 C65.34 0 130.68 0 198 0 C198 65.34 198 130.68 198 198 C132.66 198 67.32 198 0 198 C0 132.66 0 67.32 0 0 Z " fill="#F5F5F5" transform="translate(0,0)"/>
<path d="M0 0 C0.33 0.99 0.66 1.98 1 3 C0.01 4.485 0.01 4.485 -1 6 C-1.66 6 -2.32 6 -3 6 C-1.125 1.125 -1.125 1.125 0 0 Z M-4 6 C-3.67 6.99 -3.34 7.98 -3 9 C0.3 9 3.6 9 7 9 C7.33 9.66 7.66 10.32 8 11 C7.33613281 11.02578125 6.67226562 11.0515625 5.98828125 11.078125 C0.52652846 11.42895292 -3.1783408 11.7006334 -7 16 C-8.19027984 18.59915538 -8.19027984 18.59915538 -9 21 C-9.99 21.495 -9.99 21.495 -11 22 C-11.33 21.01 -11.66 20.02 -12 19 C-13.093125 19.680625 -14.18625 20.36125 -15.3125 21.0625 C-17.17578125 22.22265625 -17.17578125 22.22265625 -19 23 C-19.99 22.67 -20.98 22.34 -22 22 C-21.27554688 21.57589844 -20.55109375 21.15179688 -19.8046875 20.71484375 C-13.30165762 16.76967229 -7.50314408 13.00628816 -4 6 Z " fill="#EEEEEE" transform="translate(137,42)"/>
<path d="M0 0 C-2.80618646 1.87079097 -4.50089828 2.49709014 -7.6875 3.3125 C-16.81597165 5.99266173 -22.07430792 10.7220346 -28 18 C-31.34975369 21.9408867 -31.34975369 21.9408867 -34.75 22.25 C-35.4925 22.1675 -36.235 22.085 -37 22 C-35.37660195 20.29115995 -33.70680947 18.62553283 -32 17 C-31.34 17 -30.68 17 -30 17 C-29.7525 16.42121094 -29.505 15.84242188 -29.25 15.24609375 C-23.49341967 4.90223848 -11.41117592 -0.92025612 0 0 Z " fill="#F0F0F0" transform="translate(175,176)"/>
<path d="M0 0 C0 0.99 0 1.98 0 3 C-6.39690558 5.84722083 -11.54509028 6.38462317 -18.5 6.1875 C-19.4178125 6.17396484 -20.335625 6.16042969 -21.28125 6.14648438 C-23.52146803 6.11148097 -25.76040594 6.06238869 -28 6 C-28 5.34 -28 4.68 -28 4 C-26.81664062 3.96261719 -25.63328125 3.92523438 -24.4140625 3.88671875 C-15.91323194 3.55506232 -8.00351045 3.19738231 0 0 Z " fill="#EFEFEF" transform="translate(69,152)"/>
<path d="M0 0 C1 3 1 3 0 6 C-0.66 6 -1.32 6 -2 6 C-2 6.99 -2 7.98 -2 9 C-3.794375 9.556875 -3.794375 9.556875 -5.625 10.125 C-10.26363188 11.8274766 -12.6636662 14.42535664 -16 18 C-16.66 18 -17.32 18 -18 18 C-16.8138286 14.62397371 -15.88004752 12.18486363 -13 10 C-11.906875 9.5875 -10.81375 9.175 -9.6875 8.75 C-5.24030567 6.99950861 -2.80260616 3.74707417 0 0 Z " fill="#EFEFEF" transform="translate(172,94)"/>
<path d="M0 0 C0 3 0 3 -2.1875 5.4375 C-4.71774645 7.74283566 -7.29055804 9.90985906 -10 12 C-10.66 11.67 -11.32 11.34 -12 11 C-11.34 10.01 -10.68 9.02 -10 8 C-12.64 7.34 -15.28 6.68 -18 6 C-18 5.34 -18 4.68 -18 4 C-17.34773438 4.10699219 -16.69546875 4.21398437 -16.0234375 4.32421875 C-10.40971521 5.0942426 -6.89799072 5.30614373 -2 2 C-1.34 1.34 -0.68 0.68 0 0 Z " fill="#EEEEEE" transform="translate(127,166)"/>
<path d="M0 0 C2.875 0.3125 2.875 0.3125 6 1 C6.66 1.99 7.32 2.98 8 4 C5.75 6.5625 5.75 6.5625 3 9 C0.6875 8.8125 0.6875 8.8125 -1 8 C-0.67 5.36 -0.34 2.72 0 0 Z " fill="#F8F8F8" transform="translate(1,124)"/>
<path d="M0 0 C0.97608217 2.92824652 1.08226668 4.95613276 1 8 C1.66 8 2.32 8 3 8 C3 8.66 3 9.32 3 10 C1.35 9.67 -0.3 9.34 -2 9 C-2.38671875 9.49371094 -2.7734375 9.98742187 -3.171875 10.49609375 C-3.69265625 11.13675781 -4.2134375 11.77742187 -4.75 12.4375 C-5.51570313 13.39462891 -5.51570313 13.39462891 -6.296875 14.37109375 C-8.19667629 16.18810554 -9.43586908 16.60423197 -12 17 C-10.5938217 12.78146509 -7.66021741 10.46865386 -4.375 7.5625 C-2.38327636 5.29917769 -1.26789552 2.71691898 0 0 Z " fill="#EFEFEF" transform="translate(92,147)"/>
<path d="M0 0 C0 3 0 3 -2.0625 5.5 C-8.06806402 10.61111831 -13.40903961 11.46475268 -21 11 C-20.67 10.34 -20.34 9.68 -20 9 C-17.671875 8.47265625 -17.671875 8.47265625 -14.75 8.0625 C-8.16904868 6.96425586 -4.55044791 4.88751813 0 0 Z " fill="#EDEDED" transform="translate(153,139)"/>
<path d="M0 0 C0.66 1.32 1.32 2.64 2 4 C0.68 4.99 -0.64 5.98 -2 7 C-1.34 7.33 -0.68 7.66 0 8 C0 8.66 0 9.32 0 10 C-1.11375 10.28875 -2.2275 10.5775 -3.375 10.875 C-7.00291092 11.69241329 -7.00291092 11.69241329 -9 14 C-8.50128936 9.54326841 -6.97995638 7.42312822 -3.9375 4.1875 C-3.20402344 3.39730469 -2.47054687 2.60710937 -1.71484375 1.79296875 C-1.14894531 1.20128906 -0.58304688 0.60960938 0 0 Z " fill="#EDEDED" transform="translate(101,108)"/>
<path d="M0 0 C0.33 1.32 0.66 2.64 1 4 C0.34 4 -0.32 4 -1 4 C-1.226875 4.86625 -1.45375 5.7325 -1.6875 6.625 C-4.36473254 13.50931224 -9.04136369 17.02757579 -15 21 C-15 18 -15 18 -13.64453125 16.640625 C-13.03996094 16.18171875 -12.43539063 15.7228125 -11.8125 15.25 C-6.59649811 11.00343685 -3.33469219 5.79183381 0 0 Z " fill="#EFEFEF" transform="translate(15,12)"/>
<path d="M0 0 C1.37109375 1.375 1.37109375 1.375 3.18359375 3.8125 C0.82113293 3.26731673 -1.35407964 2.60937894 -3.62890625 1.75 C-9.14957043 0.12627524 -14.2342882 0.72330623 -19.81640625 1.8125 C-19.81640625 1.1525 -19.81640625 0.4925 -19.81640625 -0.1875 C-13.70876913 -2.49482958 -5.78634948 -3.78290375 0 0 Z " fill="#EDEDED" transform="translate(72.81640625,116.1875)"/>
<path d="M0 0 C0.33 0 0.66 0 1 0 C1.80216996 6.14996972 -0.1263327 9.63508902 -3.296875 14.86328125 C-5.06757487 17.08477856 -6.38478774 17.97097083 -9 19 C-7.97381011 16.86868255 -6.91147851 14.86319406 -5.625 12.875 C-3.30055187 8.76251485 -1.6853155 4.40577402 0 0 Z " fill="#EEEEEE" transform="translate(81,133)"/>
<path d="M0 0 C0.33 0.99 0.66 1.98 1 3 C-0.58093054 4.12837409 -2.16484716 5.25256518 -3.75 6.375 C-4.63171875 7.00148438 -5.5134375 7.62796875 -6.421875 8.2734375 C-10.63771712 11.09677419 -10.63771712 11.09677419 -13 12 C-13.99 11.67 -14.98 11.34 -16 11 C-10.25 7 -10.25 7 -8 7 C-7.67 6.01 -7.34 5.02 -7 4 C-5.35448038 3.28272222 -3.68577711 2.61674772 -2 2 C-1.34 1.34 -0.68 0.68 0 0 Z " fill="#EEEEEE" transform="translate(197,25)"/>
<path d="M0 0 C0.6875 1.75 0.6875 1.75 1 4 C-0.3125 6.25 -0.3125 6.25 -2 8 C-2.66 8 -3.32 8 -4 8 C-4.33 8.99 -4.66 9.98 -5 11 C-7.6352539 12.42446157 -9.19404974 13.16845087 -12.16796875 12.546875 C-12.77253906 12.36640625 -13.37710937 12.1859375 -14 12 C-12.98679687 11.45472656 -12.98679687 11.45472656 -11.953125 10.8984375 C-6.54900558 7.85276326 -2.90096197 5.53820012 0 0 Z " fill="#EFEFEF" transform="translate(21,171)"/>
<path d="M0 0 C-2 1 -2 1 -5.3125 1.375 C-10.99238037 2.33769159 -14.13402694 4.84765856 -18 9 C-17.52727227 4.74545047 -15.03562624 2.80795427 -12 0 C-11.67 -0.33 -11.34 -0.66 -11 -1 C-3.69897959 -2.51530612 -3.69897959 -2.51530612 0 0 Z " fill="#EDEDED" transform="translate(137,121)"/>
<path d="M0 0 C3.34249629 0.59687434 5.46436342 1.73603877 8 4 C8 4.66 8 5.32 8 6 C7.01 6 6.02 6 5 6 C5 7.65 5 9.3 5 11 C3.68 10.67 2.36 10.34 1 10 C2.875 5.25 2.875 5.25 4 3 C2.68 2.67 1.36 2.34 0 2 C0 1.34 0 0.68 0 0 Z " fill="#EFEFEF" transform="translate(117,187)"/>
<path d="M0 0 C-0.33 0.99 -0.66 1.98 -1 3 C-2.2375 2.9175 -3.475 2.835 -4.75 2.75 C-8.07809389 2.7264799 -8.71423603 2.75935666 -11.375 5 C-11.91125 5.66 -12.4475 6.32 -13 7 C-13.66 7 -14.32 7 -15 7 C-11.93033106 -0.4183666 -7.26649335 -0.41922077 0 0 Z " fill="#EFEFEF" transform="translate(198,153)"/>
<path d="M0 0 C0.99 0.33 1.98 0.66 3 1 C1.8803014 2.00593243 0.7540588 3.0045849 -0.375 4 C-1.31472656 4.8353125 -1.31472656 4.8353125 -2.2734375 5.6875 C-4 7 -4 7 -6 7 C-6 7.66 -6 8.32 -6 9 C-7.96147874 10.38938077 -9.96166576 11.7260411 -12 13 C-12.66 12.67 -13.32 12.34 -14 12 C-11.01278282 9.31866345 -8.00991966 6.65581147 -5 4 C-3.576875 2.7315625 -3.576875 2.7315625 -2.125 1.4375 C-1.073125 0.7259375 -1.073125 0.7259375 0 0 Z " fill="#EFEFEF" transform="translate(159,0)"/>
<path d="M0 0 C0.66 0.66 1.32 1.32 2 2 C-0.62198774 4.15377564 -2.64404172 5.40072174 -6 6 C-6 5.34 -6 4.68 -6 4 C-6.763125 4.20625 -7.52625 4.4125 -8.3125 4.625 C-11 5 -11 5 -14 3 C-13.32453125 2.95101562 -12.6490625 2.90203125 -11.953125 2.8515625 C-11.06109375 2.77679688 -10.1690625 2.70203125 -9.25 2.625 C-8.36828125 2.55539063 -7.4865625 2.48578125 -6.578125 2.4140625 C-4.00933618 2.00149945 -2.24158985 1.28839043 0 0 Z " fill="#EEEEEE" transform="translate(154,76)"/>
<path d="M0 0 C0.99 0.33 1.98 0.66 3 1 C1.79618552 3.49361571 0.54571278 5.68143083 -1 8 C-1.66 8 -2.32 8 -3 8 C-3.33 6.35 -3.66 4.7 -4 3 C-2.1875 1.4375 -2.1875 1.4375 0 0 Z " fill="#F7F7F7" transform="translate(8,32)"/>
<path d="M0 0 C-3.72925783 3.2428329 -8.30238735 5.5119901 -13 7 C-13.99 6.67 -14.98 6.34 -16 6 C-11.34887439 2.09305449 -6.17401031 -0.56127366 0 0 Z " fill="#EEEEEE" transform="translate(112,96)"/>
<path d="M0 0 C0 0.99 0 1.98 0 3 C-2.40625 5.04296875 -2.40625 5.04296875 -5.5 7.1875 C-6.5209375 7.90292969 -7.541875 8.61835938 -8.59375 9.35546875 C-9.3878125 9.89816406 -10.181875 10.44085938 -11 11 C-11.66 10.67 -12.32 10.34 -13 10 C-11.9275 9.2575 -10.855 8.515 -9.75 7.75 C-6.88477224 5.71250471 -4.444292 3.53482133 -2 1 C-1.34 0.67 -0.68 0.34 0 0 Z " fill="#EEEEEE" transform="translate(138,174)"/>
<path d="M0 0 C0.99 0.99 1.98 1.98 3 3 C1.35 4.32 -0.3 5.64 -2 7 C-2.99 6.34 -3.98 5.68 -5 5 C-5 4.34 -5 3.68 -5 3 C-2.5 1.375 -2.5 1.375 0 0 Z " fill="#F6F6F6" transform="translate(180,52)"/>
<path d="M0 0 C-0.33 0.99 -0.66 1.98 -1 3 C-2.33333333 3.33333333 -3.66666667 3.66666667 -5 4 C-5.33 4.99 -5.66 5.98 -6 7 C-9.44444444 10 -9.44444444 10 -12 10 C-12 9.34 -12 8.68 -12 8 C-9.8828125 6.0546875 -9.8828125 6.0546875 -7.125 3.875 C-6.22007812 3.15054688 -5.31515625 2.42609375 -4.3828125 1.6796875 C-2 0 -2 0 0 0 Z " fill="#EFEFEF" transform="translate(165,188)"/>
<path d="M0 0 C0.66 0.33 1.32 0.66 2 1 C0.40629329 2.36646148 -1.20032982 3.71787166 -2.8125 5.0625 C-4.15248047 6.19365234 -4.15248047 6.19365234 -5.51953125 7.34765625 C-6.74736328 8.16556641 -6.74736328 8.16556641 -8 9 C-8.99 8.67 -9.98 8.34 -11 8 C-7.37 5.36 -3.74 2.72 0 0 Z " fill="#EFEFEF" transform="translate(153,0)"/>
<path d="M0 0 C1.32 0.33 2.64 0.66 4 1 C0.7 3.31 -2.6 5.62 -6 8 C-6.66 7.67 -7.32 7.34 -8 7 C-6.76446724 5.79745476 -5.51097661 4.61333768 -4.25 3.4375 C-3.55390625 2.77621094 -2.8578125 2.11492187 -2.140625 1.43359375 C-1.43421875 0.96050781 -0.7278125 0.48742188 0 0 Z " fill="#EEEEEE" transform="translate(51,0)"/>
<path d="M0 0 C0 0.33 0 0.66 0 1 C-0.763125 1.0825 -1.52625 1.165 -2.3125 1.25 C-5.06847124 1.78204696 -5.06847124 1.78204696 -6.75 3.75 C-8.10384216 6.18691588 -8.61818653 8.25094301 -9 11 C-9.33 11 -9.66 11 -10 11 C-10.48275862 4.72413793 -10.48275862 4.72413793 -8.375 1.5625 C-5.397402 -0.39644605 -3.49644963 -0.31785906 0 0 Z " fill="#ECECEC" transform="translate(198,159)"/>
<path d="M0 0 C0.33 0.99 0.66 1.98 1 3 C-2.91176471 8.58823529 -2.91176471 8.58823529 -6.3125 9.875 C-6.869375 9.91625 -7.42625 9.9575 -8 10 C-6.625 8 -6.625 8 -5 6 C-4.34 6 -3.68 6 -3 6 C-2.814375 5.071875 -2.814375 5.071875 -2.625 4.125 C-2 2 -2 2 0 0 Z " fill="#EEEEEE" transform="translate(73,138)"/>
<path d="M0 0 C0.99 0 1.98 0 3 0 C3.1875 2.375 3.1875 2.375 3 5 C2.01 5.66 1.02 6.32 0 7 C-0.99 6.01 -1.98 5.02 -3 4 C-1.68 4 -0.36 4 1 4 C0.34 3.67 -0.32 3.34 -1 3 C-0.67 2.01 -0.34 1.02 0 0 Z " fill="#EFEFEF" transform="translate(113,141)"/>
<path d="M0 0 C0.99 0.33 1.98 0.66 3 1 C3.94921875 3.06640625 3.94921875 3.06640625 4.6875 5.5625 C4.93886719 6.38878906 5.19023437 7.21507812 5.44921875 8.06640625 C5.63097656 8.70449219 5.81273437 9.34257812 6 10 C5.01 10.495 5.01 10.495 4 11 C3.32880451 9.5437455 2.66318193 8.08492133 2 6.625 C1.62875 5.81289062 1.2575 5.00078125 0.875 4.1640625 C0 2 0 2 0 0 Z " fill="#EFEFEF" transform="translate(128,0)"/>
<path d="M0 0 C0.66 0.33 1.32 0.66 2 1 C-0.46941056 3.59937954 -3.18060883 5.79020692 -6 8 C-6.66 7.67 -7.32 7.34 -8 7 C-5.42215154 4.35247996 -3.08351902 2.05567935 0 0 Z " fill="#EFEFEF" transform="translate(156,169)"/>
<path d="M0 0 C0.66 0 1.32 0 2 0 C2.33 0.99 2.66 1.98 3 3 C1.68 3.33 0.36 3.66 -1 4 C-1 4.66 -1 5.32 -1 6 C-1.99 6 -2.98 6 -4 6 C-4.33 5.01 -4.66 4.02 -5 3 C-4.01 2.67 -3.02 2.34 -2 2 C-1.34 2.33 -0.68 2.66 0 3 C0 2.01 0 1.02 0 0 Z " fill="#F9F9F9" transform="translate(73,157)"/>
<path d="M0 0 C0 0.66 0 1.32 0 2 C-3.21451269 3.60725635 -6.43612536 3.05748185 -10 3 C-9.67 2.34 -9.34 1.68 -9 1 C-5.85554549 0.15014743 -3.29227921 0 0 0 Z " fill="#EEEEEE" transform="translate(165,113)"/>
<path d="M0 0 C3.63 0.66 7.26 1.32 11 2 C10.67 2.66 10.34 3.32 10 4 C7.03 3.67 4.06 3.34 1 3 C0.67 2.01 0.34 1.02 0 0 Z " fill="#F9F9F9" transform="translate(176,73)"/>
<path d="M0 0 C-0.99 0.495 -0.99 0.495 -2 1 C-1.01 2.485 -1.01 2.485 0 4 C-0.99 4.495 -0.99 4.495 -2 5 C-3.65 3.35 -5.3 1.7 -7 0 C-3.86650268 -1.04449911 -3.01031744 -0.93423645 0 0 Z " fill="#EFEFEF" transform="translate(111,67)"/>
<path d="M0 0 C1.32 0.33 2.64 0.66 4 1 C4 5 4 5 3 8 C2.01 7.67 1.02 7.34 0 7 C0 4.66666667 0 2.33333333 0 0 Z " fill="#EEEEEE" transform="translate(113,28)"/>
<path d="M0 0 C0.66 0 1.32 0 2 0 C3.0625 1.8125 3.0625 1.8125 4 4 C3.67 4.99 3.34 5.98 3 7 C3 6.34 3 5.68 3 5 C0.36 5 -2.28 5 -5 5 C-4.360625 4.731875 -3.72125 4.46375 -3.0625 4.1875 C-0.66868314 3.11332248 -0.66868314 3.11332248 0 0 Z " fill="#EEEEEE" transform="translate(178,176)"/>
<path d="M0 0 C1.98 0.495 1.98 0.495 4 1 C4.33 2.65 4.66 4.3 5 6 C4.01 6.495 4.01 6.495 3 7 C2.34 5.68 1.68 4.36 1 3 C0.01 3.495 0.01 3.495 -1 4 C-0.67 2.68 -0.34 1.36 0 0 Z " fill="#EEEEEE" transform="translate(165,21)"/>
<path d="M0 0 C0.58265625 0.21527344 1.1653125 0.43054688 1.765625 0.65234375 C0.50322788 1.5189299 -0.76965001 2.37026434 -2.046875 3.21484375 C-3.10841797 3.92833984 -3.10841797 3.92833984 -4.19140625 4.65625 C-6.234375 5.65234375 -6.234375 5.65234375 -9.234375 4.65234375 C-8.16330383 3.78285058 -7.07691556 2.9322017 -5.984375 2.08984375 C-5.38109375 1.61417969 -4.7778125 1.13851562 -4.15625 0.6484375 C-2.234375 -0.34765625 -2.234375 -0.34765625 0 0 Z " fill="#EFEFEF" transform="translate(168.234375,192.34765625)"/>
<path d="M0 0 C0.99 0.33 1.98 0.66 3 1 C3.6875 3.0625 3.6875 3.0625 4 5 C3.01 5.495 3.01 5.495 2 6 C1.67 5.34 1.34 4.68 1 4 C0.01 3.34 -0.98 2.68 -2 2 C-1.34 1.34 -0.68 0.68 0 0 Z M4 2 C6 3 6 3 6 3 Z " fill="#EFEFEF" transform="translate(3,99)"/>
<path d="M0 0 C0.33 0 0.66 0 1 0 C1 2.64 1 5.28 1 8 C0.01 7.67 -0.98 7.34 -2 7 C-1.125 1.125 -1.125 1.125 0 0 Z " fill="#EEEEEE" transform="translate(33,190)"/>
<path d="M0 0 C0.33 0 0.66 0 1 0 C1.125 3.375 1.125 3.375 1 7 C0.34 7.66 -0.32 8.32 -1 9 C-1.66 9 -2.32 9 -3 9 C-2.01 6.03 -1.02 3.06 0 0 Z " fill="#EFEFEF" transform="translate(12,162)"/>
<path d="M0 0 C0.66 0 1.32 0 2 0 C2.33 0.66 2.66 1.32 3 2 C5.01669827 3.13350534 5.01669827 3.13350534 7 4 C4 5 4 5 1 4 C0.67 4.99 0.34 5.98 0 7 C0 4.69 0 2.38 0 0 Z " fill="#EDEDED" transform="translate(0,120)"/>
<path d="M0 0 C-1.33332095 3.99996286 -3.4957827 4.83782337 -7 7 C-7.66 6.67 -8.32 6.34 -9 6 C-7.8803014 4.99406757 -6.7540588 3.9954151 -5.625 3 C-4.68527344 2.1646875 -4.68527344 2.1646875 -3.7265625 1.3125 C-2 0 -2 0 0 0 Z " fill="#F9F9F9" transform="translate(97,66)"/>
<path d="M0 0 C0.66 0.33 1.32 0.66 2 1 C-2.95 3.97 -2.95 3.97 -8 7 C-8.33 6.34 -8.66 5.68 -9 5 C-7.54735962 4.1361871 -6.0876837 3.28419546 -4.625 2.4375 C-3.40683594 1.72400391 -3.40683594 1.72400391 -2.1640625 0.99609375 C-1.44992188 0.66738281 -0.73578125 0.33867188 0 0 Z " fill="#EEEEEE" transform="translate(57,56)"/>
<path d="M0 0 C0.99 0.33 1.98 0.66 3 1 C2.01 2.485 2.01 2.485 1 4 C1.66 4 2.32 4 3 4 C3 4.66 3 5.32 3 6 C1.68 6 0.36 6 -1 6 C-1.042721 4.33388095 -1.04063832 2.66617115 -1 1 C-0.67 0.67 -0.34 0.34 0 0 Z " fill="#EEEEEE" transform="translate(151,82)"/>
<path d="M0 0 C2.66735273 2.48952921 4.55746343 4.63408134 6 8 C4.125 7.75 4.125 7.75 2 7 C0.27898465 4.41847698 0 3.15081975 0 0 Z " fill="#EDEDED" transform="translate(133,64)"/>
<path d="M0 0 C2.86724686 0.57344937 3.8614515 0.8614515 6 3 C6.125 6.125 6.125 6.125 6 9 C4 5.25 4 5.25 4 3 C2.68 2.67 1.36 2.34 0 2 C0 1.34 0 0.68 0 0 Z " fill="#EDEDED" transform="translate(16,51)"/>
<path d="M0 0 C0.66 1.32 1.32 2.64 2 4 C-0.31 4 -2.62 4 -5 4 C-3.36587557 2.29159719 -2.13093906 1.06546953 0 0 Z " fill="#F0F0F0" transform="translate(196,194)"/>
<path d="M0 0 C0.556875 0.226875 1.11375 0.45375 1.6875 0.6875 C-0.61618736 1.75402192 -2.95268187 2.75171005 -5.3125 3.6875 C-5.9725 3.3575 -6.6325 3.0275 -7.3125 2.6875 C-2.88173077 -0.38942308 -2.88173077 -0.38942308 0 0 Z " fill="#EFEFEF" transform="translate(116.3125,112.3125)"/>
<path d="M0 0 C-0.33 0.99 -0.66 1.98 -1 3 C-1.598125 2.814375 -2.19625 2.62875 -2.8125 2.4375 C-5.16408762 1.77906313 -5.16408762 1.77906313 -8 3 C-7.67 2.01 -7.34 1.02 -7 0 C-3.86650268 -1.04449911 -3.01031744 -0.93423645 0 0 Z " fill="#EEEEEE" transform="translate(84,91)"/>
</svg>
