<?xml version="1.0" encoding="utf-8"?>
<svg xmlns="http://www.w3.org/2000/svg" width="200" height="30" viewBox="0 0 200 30">
  <style>
    .text { fill: white; font-family: Arial, sans-serif; font-size: 18px; font-weight: bold; }
  </style>
  <g>
    <path fill="#FFFFFF" d="M16.4,6.3L16.4,6.3V0.5c0-0.2-0.1-0.4-0.3-0.5c-0.2-0.1-0.4-0.1-0.6,0l-5,2.9l0,0c-0.3,0.2-0.3,0.5-0.2,0.7
      L12,6.6c0.1,0.2,0.3,0.3,0.5,0.3h3.4C16.2,6.9,16.4,6.6,16.4,6.3z"/>
    <path fill="#FFFFFF" d="M11.5,11l5-2.9l0,0c0.3-0.2,0.6-0.1,0.7,0.2l1.7,2.9c0.1,0.2,0.1,0.4,0,0.6l-1.7,2.9
      c-0.2,0.3-0.5,0.3-0.7,0.2l0,0l-5-2.9c-0.2-0.1-0.3-0.3-0.3-0.5C11.3,11.3,11.4,11.1,11.5,11z"/>
    <path fill="#FFFFFF" d="M15.9,15.9L15.9,15.9l-5-2.9c-0.2-0.1-0.4-0.1-0.6,0c-0.2,0.1-0.3,0.3-0.3,0.5v5.8l0,0
      c0,0.3,0.2,0.6,0.6,0.6H14c0.2,0,0.4-0.1,0.5-0.3l1.7-2.9C16.3,16.4,16.2,16.1,15.9,15.9z"/>
    <path fill="#FFFFFF" d="M3.1,15.9L3.1,15.9l5-2.9c0.2-0.1,0.4-0.1,0.6,0c0.2,0.1,0.3,0.3,0.3,0.5v5.8l0,0c0,0.3-0.2,0.6-0.6,0.6H5
      c-0.2,0-0.4-0.1-0.5-0.3l-1.7-2.9C2.7,16.4,2.8,16.1,3.1,15.9z"/>
    <path fill="#FFFFFF" d="M3.1,7.1L3.1,7.1l5,2.9c0.2,0.1,0.4,0.1,0.6,0c0.2-0.1,0.3-0.3,0.3-0.5V3.7l0,0c0-0.3-0.2-0.6-0.6-0.6H5
      c-0.2,0-0.4,0.1-0.5,0.3L2.8,6.3C2.7,6.6,2.8,6.9,3.1,7.1z"/>
    <path fill="#FFFFFF" d="M7.5,11l-5-2.9l0,0C2.2,8,1.9,8.1,1.8,8.4l-1.7,2.9c-0.1,0.2-0.1,0.4,0,0.6l1.7,2.9c0.2,0.3,0.5,0.3,0.7,0.2
      l0,0l5-2.9c0.2-0.1,0.3-0.3,0.3-0.5C7.8,11.3,7.7,11.1,7.5,11z"/>
  </g>

  <text x="30" y="20" class="text">ARIF SYAIFUL</text>
</svg>
